<svg width="164" height="277" viewBox="0 0 164 277" fill="none" xmlns="http://www.w3.org/2000/svg">
  <path d="M148.058 67.7917C116.558 -19.7083 38.5579 -36.708 3.55792 111.792C-0.331246 128.292 17.0565 137.292 28.557 125.792L74.5566 67.7917C95.0566 45.7921 133.558 83.2919 148.058 90.792C162.558 98.2921 148.058 67.7917 148.058 67.7917Z" fill="#80CAFF" stroke="#80CAFF"/>
  <path d="M130.43 96.8532C116.629 88.3965 105.598 60.1738 91.441 67.4908C87.8655 69.3389 85.5984 72.1501 83.6431 76.5796C81.4668 81.5097 81.7656 83.7285 83.1232 89.1634C86.1013 101.085 106.789 97.6797 108.076 110.136C109.264 121.635 105.39 136.945 101.328 147.188C97.1689 157.674 93.53 185.638 92.7992 189.134C90.2318 201.415 95.2909 221.292 101.328 221.292C108.606 221.292 121.803 202.416 123.373 194.726C125.951 182.089 125.996 170.115 124.192 156.276C122.642 144.391 115.86 124.849 124.192 122.719C134.932 119.974 141.068 146.861 151.744 143.693C157.851 141.881 159.19 143.052 161.621 135.303C163.436 129.518 163.439 125.955 162.141 119.923C158.442 102.732 142.54 104.274 130.43 96.8532Z" fill="#80CAFF" stroke="#80CAFF"/>
  <path d="M21.5575 137.292C11.5557 137.292 2.55573 125.792 4.55228 142.829C8.7185 178.381 -9.36527 214.254 10.5566 246.292C17.849 258.019 21.5575 265.792 27.0467 271.791C32.1939 277.417 44.2698 278.677 47.5467 271.791C54.9281 256.282 26.3267 229.099 33.0467 213.291C43.7049 188.22 40.0989 250.871 65.0566 261.792C93.392 274.19 144.067 258.885 153.057 229.292C162.777 197.291 160.057 199.115 160.057 170.792C160.057 160.292 155.712 155.926 146.057 156.792C138.557 157.464 138.057 164.292 136.557 170.792C130.287 197.962 142.571 224.19 116.047 232.791C98.9616 238.332 85.7859 233.555 71.0467 223.291C57.8012 214.067 40.6876 203.902 47.5467 189.291C53.5079 176.593 72.0154 189.097 82.0467 179.291C91.7611 169.796 96.5472 140.791 97.5472 129.291C98.5472 117.791 99.0472 116.792 95.0472 109.292C89.1341 98.2045 70.4008 93.4604 59.5472 99.7915C47.5467 106.792 43.2289 116.173 35.0472 129.291C30.0575 137.292 25.5575 137.292 21.5575 137.292Z" fill="#80CAFF" stroke="#80CAFF"/>
</svg>
